<svg width="60" height="60" viewBox="0 0 60 60" fill="none" xmlns="http://www.w3.org/2000/svg">
<rect x="0.5" y="0.5" width="59" height="59" rx="7.5" fill="#FFF9F0"/>
<rect x="0.5" y="0.5" width="59" height="59" rx="7.5" stroke="#FFEACC"/>
<path d="M26.6573 43.8559H33.3427C37.1504 43.8559 39.0325 41.9011 38.9996 37.9915C38.9558 33.5266 38.934 30.2834 38.8246 27.851C38.5073 20.6982 36.5268 18.599 30.0055 18.599C23.4842 18.599 21.4928 20.6982 21.1755 27.851C21.0661 30.2834 21.0442 33.5266 21.0004 37.9915C20.9676 41.9011 22.8496 43.8559 26.6573 43.8559ZM26.34 39.4466C25.399 39.4466 24.7972 38.8245 24.7972 37.8916V32.1605C24.7972 31.2164 25.399 30.5944 26.34 30.5944H33.671C34.6011 30.5944 35.2028 31.2164 35.2028 32.1605V37.8916C35.2028 38.8245 34.6011 39.4466 33.671 39.4466H26.34ZM24.7972 34.8706H35.2028V33.5488H24.7972V34.8706ZM30.0055 16C27.9047 16 26.4275 17.4439 26.4275 19.4098H27.9703C27.9703 18.3324 28.8019 17.5661 30.0055 17.5661C31.1981 17.5661 32.0407 18.3324 32.0407 19.4098H33.5834C33.5834 17.4439 32.0954 16 30.0055 16Z" fill="#FF9500"/>
</svg>
