<svg width="60" height="60" viewBox="0 0 60 60" fill="none" xmlns="http://www.w3.org/2000/svg">
<rect x="0.5" y="0.5" width="59" height="59" rx="7.5" fill="#FFF9F0"/>
<rect x="0.5" y="0.5" width="59" height="59" rx="7.5" stroke="#FFEACC"/>
<path d="M23.5977 42.1133H38.7734C39.2891 42.1133 39.7109 41.7031 39.7109 41.1758C39.7109 40.7656 39.4297 40.4023 39.0547 40.2734C37.5781 39.6875 37.2734 37.7773 38.7266 36.3125C39.1719 35.8672 39.7109 35.293 39.7109 34.1211V20.6797C39.7109 18.2422 38.5039 17 36.0781 17H23.6328C21.207 17 20 18.2305 20 20.6797V38.4922C20 40.9062 21.2188 42.1133 23.5977 42.1133ZM23.7031 40.2266C22.5195 40.2266 21.8867 39.5938 21.8867 38.4805C21.8867 37.4258 22.6367 36.7461 23.8086 36.7461H35.832C35.9844 36.7461 36.125 36.7344 36.2422 36.7109C35.6914 37.9297 35.7852 39.2188 36.4062 40.2266H23.7031ZM23.3516 34.9648C22.9883 34.9648 22.6836 34.6602 22.6836 34.2852V19.4844C22.6836 19.1094 22.9883 18.8164 23.3516 18.8164C23.7148 18.8164 24.0312 19.1094 24.0312 19.4844V34.2852C24.0312 34.6602 23.7148 34.9648 23.3516 34.9648Z" fill="#FF9500"/>
</svg>
