<svg width="45" height="44" viewBox="0 0 45 44" fill="none" xmlns="http://www.w3.org/2000/svg">
<rect x="0.833984" y="0.5" width="43" height="43" rx="5.5" fill="#F7F7F8"/>
<rect x="0.833984" y="0.5" width="43" height="43" rx="5.5" stroke="#F1F1F3"/>
<g clip-path="url(#clip0_144_1834)">
<path d="M32.334 22C32.334 16.4771 27.8568 12 22.334 12C16.8111 12 12.334 16.4771 12.334 22C12.334 26.9912 15.9908 31.1283 20.7715 31.8785V24.8906H18.2324V22H20.7715V19.7969C20.7715 17.2906 22.2645 15.9062 24.5486 15.9062C25.6424 15.9062 26.7871 16.1016 26.7871 16.1016V18.5625H25.5262C24.284 18.5625 23.8965 19.3334 23.8965 20.125V22H26.6699L26.2266 24.8906H23.8965V31.8785C28.6771 31.1283 32.334 26.9912 32.334 22Z" fill="#333333"/>
</g>
<defs>
<clipPath id="clip0_144_1834">
<rect width="20" height="20" fill="white" transform="translate(12.334 12)"/>
</clipPath>
</defs>
</svg>
