<svg width="56" height="56" viewBox="0 0 56 56" fill="none" xmlns="http://www.w3.org/2000/svg">
<rect x="0.5" y="0.5" width="55" height="55" rx="5.5" fill="#FFF9F0"/>
<rect x="0.5" y="0.5" width="55" height="55" rx="5.5" stroke="#FFEACC"/>
<path d="M24.5393 34.9684C28.5075 33.8763 30.2058 30.7396 29.087 26.5109L27.5818 20.763C27.1713 19.2193 26.1733 18.6609 24.6359 19.0715L16.6594 21.231C15.114 21.658 14.5425 22.6434 14.953 24.2199L16.4501 29.9595C17.5528 34.1802 20.5712 36.0523 24.5393 34.9684ZM23.7828 32.0288C22.1005 32.4722 20.4665 31.8892 19.6053 30.4933C19.4363 30.2388 19.5812 29.9842 19.9031 30.0089C20.9736 30.0992 22.2454 29.9103 23.163 29.6558C24.0644 29.4176 25.2396 28.9414 26.133 28.3091C26.3986 28.112 26.6643 28.2516 26.6481 28.5883C26.5918 30.2306 25.473 31.5526 23.7828 32.0288ZM19.726 26.6341C19.1224 26.8064 19.0419 27.217 18.7843 27.2581C18.6636 27.2827 18.5187 27.1431 18.4463 26.905C18.2531 26.2071 18.6877 25.4598 19.3799 25.2874C20.0802 25.115 20.7966 25.5337 20.9736 26.2071C21.0461 26.4534 20.9817 26.6423 20.8529 26.6915C20.5551 26.7982 20.2734 26.4862 19.726 26.6341ZM24.6359 25.2792C24.0322 25.4598 23.9517 25.8622 23.6942 25.895C23.5735 25.9196 23.4286 25.7801 23.3562 25.5501C23.163 24.8604 23.5976 24.105 24.2898 23.9325C24.9981 23.7437 25.7064 24.1707 25.8835 24.8522C25.9559 25.1067 25.8916 25.2874 25.7628 25.3367C25.473 25.4434 25.1832 25.1232 24.6359 25.2792ZM40.1544 23.3577L32.1859 21.1818C30.7692 20.7958 29.7712 21.2228 29.3606 22.5038L29.2641 22.8569L30.1495 26.2235C31.0348 29.5819 30.3105 32.423 28.2499 34.2623C29.0387 35.5925 30.4393 36.5861 32.2905 37.0869C36.2426 38.1626 39.2449 36.2904 40.3556 32.0699L41.8769 26.3384C42.2793 24.7865 41.6998 23.7765 40.1544 23.3577ZM32.041 28.3337C31.4856 28.1942 31.1556 27.6194 31.3085 27.0364C31.4614 26.4698 32.0249 26.1331 32.5802 26.2892C33.1356 26.4452 33.4657 27.0282 33.3208 27.5947C33.1678 28.1613 32.6044 28.4898 32.041 28.3337ZM36.7657 29.6229C36.2184 29.4751 35.8884 28.8921 36.0413 28.3173C36.1862 27.7508 36.7497 27.4223 37.3051 27.5783C37.8685 27.7179 38.1904 28.3009 38.0455 28.8757C37.8926 29.4423 37.3292 29.7789 36.7657 29.6229ZM33.3771 32.776C32.5401 32.5379 31.7351 32.5297 30.7049 32.7596C30.3829 32.8335 30.1897 32.5625 30.3588 32.2916C31.051 31.183 32.4515 30.7232 33.8118 31.1092C35.2203 31.4704 36.1782 32.5707 36.2264 33.8845C36.2426 34.213 35.9448 34.3526 35.7033 34.1309C34.9065 33.3919 34.2223 32.9977 33.3771 32.776Z" fill="#FF9500"/>
</svg>
