<svg width="60" height="60" viewBox="0 0 60 60" fill="none" xmlns="http://www.w3.org/2000/svg">
<rect x="0.5" y="0.5" width="59" height="59" rx="7.5" fill="#FFF9F0"/>
<rect x="0.5" y="0.5" width="59" height="59" rx="7.5" stroke="#FFEACC"/>
<path d="M16 30.4852C16 32.4946 17.3923 33.5977 18.9586 33.5977C19.616 33.5977 20.1091 33.4105 20.6989 33.0363C21.25 32.6916 21.6464 32.8983 21.6464 33.381V37.0254C21.6464 38.9658 22.6519 39.9606 24.5759 39.9606H27.1574C27.6215 39.9606 27.8246 39.5666 27.4959 39.0052C27.1188 38.4043 26.9351 37.902 26.9351 37.2322C26.9351 35.6366 28.0276 34.2183 30 34.2183C31.9724 34.2183 33.0553 35.6366 33.0553 37.2322C33.0553 37.902 32.8715 38.4043 32.5041 39.0052C32.1754 39.5666 32.3687 39.9606 32.8426 39.9606H35.4241C37.3481 39.9606 38.3536 38.9658 38.3536 37.0254V33.381C38.3536 32.8983 38.75 32.6916 39.2915 33.0363C39.8909 33.4105 40.384 33.5977 41.0317 33.5977C42.6077 33.5977 44 32.4946 44 30.4852C44 28.466 42.6077 27.3629 41.0317 27.3629C40.384 27.3629 39.8909 27.55 39.2915 27.9243C38.75 28.269 38.3536 28.0622 38.3536 27.5796V23.9352C38.3536 22.0047 37.3481 21 35.4241 21H32.8426C32.3687 21 32.1754 21.4038 32.5041 21.9653C32.8715 22.5661 33.0553 23.0684 33.0553 23.7382C33.0553 25.3338 31.9724 26.7522 30 26.7522C28.0276 26.7522 26.9351 25.3338 26.9351 23.7382C26.9351 23.0684 27.1188 22.5661 27.4959 21.9653C27.8246 21.4038 27.6215 21 27.1574 21H24.5759C22.6519 21 21.6464 22.0047 21.6464 23.9352V27.5796C21.6464 28.0622 21.25 28.269 20.6989 27.9243C20.1091 27.55 19.616 27.3629 18.9586 27.3629C17.3923 27.3629 16 28.466 16 30.4852Z" fill="#FF9500"/>
</svg>
