<svg width="60" height="60" viewBox="0 0 60 60" fill="none" xmlns="http://www.w3.org/2000/svg">
<rect x="0.5" y="0.5" width="59" height="59" rx="7.5" fill="#FFF9F0"/>
<rect x="0.5" y="0.5" width="59" height="59" rx="7.5" stroke="#FFEACC"/>
<path d="M38.8633 40.707C39.3906 40.707 39.8242 40.2852 39.8242 39.7695C39.8242 39.2422 39.3906 38.8086 38.8633 38.8086H37.4336V31.0391C37.4336 26.7617 34.1406 23.457 29.8633 23.457C25.5977 23.457 22.3047 26.7617 22.3047 31.0391V38.8086H20.8516C20.3359 38.8086 19.9258 39.2422 19.9258 39.7695C19.9258 40.2852 20.3359 40.707 20.8516 40.707H38.8633ZM30.8477 31.0742V38.8086H28.9023V31.0742C28.9023 30.5352 29.3242 30.0898 29.8633 30.0898C30.4023 30.0898 30.8477 30.5352 30.8477 31.0742ZM19.2461 31.8828C19.7969 31.8828 20.2773 31.4258 20.2773 30.8867C20.2773 30.3242 19.7969 29.8672 19.2461 29.8672H16.9961C16.457 29.8672 16 30.3359 16 30.8867C16 31.4141 16.457 31.8828 16.9961 31.8828H19.2461ZM21.6484 24.0898C22.0352 24.4766 22.6797 24.4883 23.0664 24.0898C23.4648 23.6914 23.4531 23.0586 23.0664 22.6719L21.4844 21.0781C21.1094 20.6797 20.4531 20.6797 20.0547 21.0781C19.668 21.4766 19.668 22.0977 20.0547 22.4961L21.6484 24.0898ZM28.8555 20.2695C28.8555 20.8203 29.3125 21.2891 29.8633 21.2891C30.4258 21.2891 30.8828 20.8203 30.8828 20.2695V18.0195C30.8828 17.4688 30.4141 17 29.8633 17C29.3125 17 28.8555 17.4688 28.8555 18.0195V20.2695ZM36.6484 22.6719C36.2617 23.0586 36.25 23.6914 36.6484 24.0898C37.0586 24.4883 37.6797 24.4766 38.0664 24.0898L39.6719 22.4961C40.0586 22.0977 40.0586 21.4766 39.6719 21.0781C39.2617 20.6797 38.6406 20.6797 38.2539 21.0781L36.6484 22.6719ZM42.7188 31.8828C43.2695 31.8828 43.7383 31.4141 43.7383 30.8867C43.7383 30.3359 43.2695 29.8672 42.7188 29.8672H40.4688C39.9297 29.8672 39.4609 30.3242 39.4609 30.8867C39.4609 31.4258 39.9297 31.8828 40.4688 31.8828H42.7188Z" fill="#FF9500"/>
</svg>
