<svg width="45" height="44" viewBox="0 0 45 44" fill="none" xmlns="http://www.w3.org/2000/svg">
<rect x="0.833984" y="0.5" width="43" height="43" rx="5.5" fill="#F7F7F8"/>
<rect x="0.833984" y="0.5" width="43" height="43" rx="5.5" stroke="#F1F1F3"/>
<g clip-path="url(#clip0_144_1837)">
<path d="M18.6258 30.1251C26.1711 30.1251 30.2992 23.8724 30.2992 18.4517C30.2992 18.2759 30.2953 18.0962 30.2875 17.9204C31.0905 17.3397 31.7836 16.6203 32.334 15.7962C31.5861 16.129 30.792 16.3463 29.9789 16.4407C30.8351 15.9275 31.4761 15.1213 31.7832 14.1716C30.9778 14.6489 30.097 14.9856 29.1785 15.1673C28.5597 14.5098 27.7415 14.0744 26.8504 13.9285C25.9593 13.7826 25.045 13.9343 24.2488 14.3602C23.4526 14.7861 22.8188 15.4624 22.4455 16.2845C22.0722 17.1067 21.9802 18.029 22.1836 18.9087C20.5527 18.8269 18.9573 18.4032 17.5006 17.6652C16.044 16.9272 14.7587 15.8913 13.7281 14.6247C13.2043 15.5278 13.044 16.5965 13.2798 17.6135C13.5157 18.6306 14.1299 19.5197 14.9977 20.1001C14.3462 20.0794 13.709 19.904 13.1387 19.5884V19.6392C13.1381 20.5869 13.4657 21.5056 14.0659 22.2391C14.6661 22.9726 15.5018 23.4756 16.4309 23.6626C15.8274 23.8277 15.194 23.8518 14.5797 23.7329C14.8419 24.548 15.352 25.2609 16.0388 25.7721C16.7256 26.2833 17.5549 26.5673 18.4109 26.5845C16.9577 27.726 15.1625 28.3452 13.3145 28.3423C12.9867 28.3418 12.6593 28.3217 12.334 28.2821C14.2114 29.4866 16.3953 30.1263 18.6258 30.1251Z" fill="#333333"/>
</g>
<defs>
<clipPath id="clip0_144_1837">
<rect width="20" height="20" fill="white" transform="translate(12.334 12)"/>
</clipPath>
</defs>
</svg>
